<svg width="33" height="32" viewBox="0 0 33 32" fill="none" xmlns="http://www.w3.org/2000/svg">
<g clip-path="url(#clip0_115_1414)">
<path d="M0.720337 3.33333C0.720337 1.49239 2.21272 0 4.05367 0H29.387C31.2279 0 32.7203 1.49239 32.7203 3.33333V28.6667C32.7203 30.5076 31.2279 32 29.387 32H4.05367C2.21272 32 0.720337 30.5076 0.720337 28.6667V3.33333Z" fill="white"/>
<path d="M29.7661 0H3.67452C2.04297 0 0.720337 1.32263 0.720337 2.95419V29.0458C0.720337 30.6773 2.04297 32 3.67452 32H29.7661C31.3977 32 32.7203 30.6773 32.7203 29.0458V2.95419C32.7203 1.32263 31.3977 0 29.7661 0Z" fill="#CC0000"/>
<path d="M28.799 9.03138C28.145 8.86138 27.3289 9.26818 27.1468 10.0116L25.0967 18.2291L23.2163 10.7066C23.2002 10.6198 23.1313 10.3789 23.1218 10.3653C22.9715 9.96224 22.7018 9.61471 22.3486 9.36924C21.9953 9.12371 21.5756 8.99198 21.1455 8.99158C20.2382 8.99158 19.4593 9.55718 19.1675 10.364C19.1651 10.3702 19.1303 10.4751 19.1165 10.5224C19.1147 10.5302 19.1109 10.5382 19.1092 10.5458L17.1981 18.248C17.1981 18.248 15.1696 10.1338 15.1674 10.1236L15.1607 10.0966C15.1607 10.0948 15.1582 10.094 15.1577 10.0924C15.0821 9.78218 14.9055 9.50584 14.6558 9.30684C14.4061 9.10778 14.0973 8.99738 13.778 8.99291C13.7749 8.99291 13.7724 8.99158 13.7691 8.99158H13.7647C13.7627 8.99158 13.7608 8.99158 13.7586 8.99158C13.7564 8.99158 13.7545 8.99158 13.7525 8.99158H11.4971C11.9075 9.27051 12.1359 9.67731 12.2261 10.1476L12.6575 11.8694C12.6575 11.8694 15.1266 21.7375 15.1288 21.745C15.2575 22.1979 15.5305 22.5966 15.9061 22.8805C16.2818 23.1644 16.7398 23.3182 17.2107 23.3184C18.1627 23.3184 18.9489 22.6905 19.2389 21.8358C19.217 21.824 19.2389 21.838 19.2389 21.8358L21.1439 14.1999C21.1439 14.1999 23.0038 21.7477 23.0287 21.7542C23.2917 22.654 24.1095 23.3181 25.0945 23.3181C25.5971 23.3178 26.0841 23.1426 26.4718 22.8226C26.8595 22.5026 27.1238 22.0576 27.2194 21.5641L29.9138 10.7232C30.0961 9.97978 29.5315 9.22124 28.799 9.03138Z" fill="white"/>
<path d="M2.80516 10.4296C2.80516 11.2966 3.54295 11.8683 4.20592 11.8683H7.26296L7.2701 21.861C7.26803 22.051 7.30367 22.2395 7.37495 22.4157C7.44626 22.5918 7.55172 22.7521 7.68539 22.8871C7.81899 23.0223 7.97812 23.1295 8.15346 23.2027C8.32886 23.2759 8.51699 23.3136 8.70699 23.3136C8.89699 23.3136 9.08512 23.2759 9.26052 23.2027C9.43586 23.1295 9.59499 23.0223 9.72859 22.8871C9.86219 22.7521 9.96772 22.5918 10.039 22.4157C10.1103 22.2395 10.1459 22.051 10.1439 21.861L10.1367 11.8688H12.3045L11.8687 10.1195C11.8687 10.1195 11.6378 8.95067 10.3139 8.99127C10.3139 8.99127 9.62286 8.99127 9.92559 8.99127H4.18128C3.51829 8.99093 2.80516 9.59693 2.80516 10.4296Z" fill="white"/>
</g>
<defs>
<clipPath id="clip0_115_1414">
<rect width="32" height="32" fill="white" transform="translate(0.720337)"/>
</clipPath>
</defs>
</svg>
